<?xml version="1.0" encoding="UTF-8"?>
<svg width="43px" height="21px" viewBox="0 0 43 21" version="1.1" xmlns="http://www.w3.org/2000/svg" xmlns:xlink="http://www.w3.org/1999/xlink">
    <!-- Generator: Sketch 54.1 (76490) - https://sketchapp.com -->
    <title>Group</title>
    <desc>Created with Sketch.</desc>
    <defs>
        <linearGradient x1="50%" y1="118.033099%" x2="50%" y2="-20.9098497%" id="linearGradient-1">
            <stop stop-color="#808C9A" stop-opacity="0.5" offset="0%"></stop>
            <stop stop-color="#6D7886" offset="100%"></stop>
        </linearGradient>
        <path d="M31.6648244,7.29815133 L43.3376899,4.3000385 C43.8091813,4.17893476 44.0949655,4.4719016 43.9710731,4.95559786 C43.9710731,4.95559786 42.6425795,10.142216 42.0690849,12.381108 C41.9058797,13.0184299 41.4669593,13.5437219 40.8780548,13.8065027 C38.96039,14.6622088 34.4162465,16.6899129 30.3876199,18.4875815 C31.8593269,16.7025348 32.7441023,14.4097935 32.7441023,11.9090909 C32.7441023,11.8541012 32.7436745,11.799212 32.742822,11.7444266 L40.0947557,9.29390327 L40.5018249,7.82058182 L32.582796,10.0768767 C32.4078576,9.0954174 32.0948868,8.16215109 31.6648244,7.29815133 L31.6648244,7.29815133 Z M12.3823686,7.05342797 L1.66231007,4.3000385 C1.19081871,4.17893476 0.905034541,4.4719016 1.02892688,4.95559786 C1.02892688,4.95559786 2.35742053,10.142216 2.93091512,12.381108 C3.09412029,13.0184299 3.53304066,13.5437219 4.12194517,13.8065027 C5.69089095,14.5066024 9.01794,15.99121 12.3823679,17.4924973 L12.3823686,11.7861547 L4.90524431,9.29390327 L4.49817514,7.82058182 L12.3823686,10.0669513 L12.3823686,7.05342797 L12.3823686,7.05342797 Z M17.9374711,4.27272727 L13.6470725,4.27272727 L13.6470725,24 L18.0735363,24 L18.0735363,19.6263041 C19.375684,20.3843345 20.8874962,20.8181818 22.5,20.8181818 C27.3893368,20.8181818 31.3529275,16.829446 31.3529275,11.9090909 C31.3529275,6.98873587 27.3893368,3 22.5,3 C20.8310106,3 19.2698908,3.46477476 17.9374711,4.27272727 L17.9374711,4.27272727 L17.9374711,4.27272727 Z M22.5,16.3636364 C24.9446684,16.3636364 26.9264637,14.3692684 26.9264637,11.9090909 C26.9264637,9.44891339 24.9446684,7.45454545 22.5,7.45454545 C20.0553316,7.45454545 18.0735363,9.44891339 18.0735363,11.9090909 C18.0735363,14.3692684 20.0553316,16.3636364 22.5,16.3636364 L22.5,16.3636364 Z" id="path-2"></path>
    </defs>
    <g id="Pilot-Anywhere-/-Computers" stroke="none" stroke-width="1" fill="none" fill-rule="evenodd">
        <g id="Computer-Assign" transform="translate(-25.000000, -22.000000)">
            <g id="Group" transform="translate(24.000000, 19.000000)">
                <rect id="box" x="0" y="0" width="45" height="26"></rect>
                <g id="logo">
                    <use fill="#808C9A" xlink:href="#path-2"></use>
                    <use fill-opacity="0.64" fill="url(#linearGradient-1)" xlink:href="#path-2"></use>
                </g>
            </g>
        </g>
    </g>
</svg>